<?xml version="1.0" encoding="UTF-8" standalone="no"?>
<!-- Created with Inkscape (http://www.inkscape.org/) -->

<svg
   xmlns:dc="http://purl.org/dc/elements/1.1/"
   xmlns:cc="http://creativecommons.org/ns#"
   xmlns:rdf="http://www.w3.org/1999/02/22-rdf-syntax-ns#"
   xmlns:svg="http://www.w3.org/2000/svg"
   xmlns="http://www.w3.org/2000/svg"
   xmlns:sodipodi="http://sodipodi.sourceforge.net/DTD/sodipodi-0.dtd"
   xmlns:inkscape="http://www.inkscape.org/namespaces/inkscape"
   version="1.1"
   id="svg2"
   xml:space="preserve"
   width="404.35733"
   height="404.35999"
   viewBox="0 0 404.35733 404.35999"
   sodipodi:docname="ENCE.svg"
   inkscape:version="0.92.3 (2405546, 2018-03-11)"><metadata
     id="metadata8"><rdf:RDF><cc:Work
         rdf:about=""><dc:format>image/svg+xml</dc:format><dc:type
           rdf:resource="http://purl.org/dc/dcmitype/StillImage" /><dc:title></dc:title></cc:Work></rdf:RDF></metadata><defs
     id="defs6"><clipPath
       clipPathUnits="userSpaceOnUse"
       id="clipPath18"><path
         d="M 0,303.27 H 303.268 V 0 H 0 Z"
         id="path16"
         inkscape:connector-curvature="0" /></clipPath><clipPath
       clipPathUnits="userSpaceOnUse"
       id="clipPath146"><path
         d="M 0,303.27 H 303.268 V 0 H 0 Z"
         id="path144"
         inkscape:connector-curvature="0" /></clipPath></defs><sodipodi:namedview
     pagecolor="#ffffff"
     bordercolor="#666666"
     borderopacity="1"
     objecttolerance="10"
     gridtolerance="10"
     guidetolerance="10"
     inkscape:pageopacity="0"
     inkscape:pageshadow="2"
     inkscape:window-width="1920"
     inkscape:window-height="1017"
     id="namedview4"
     showgrid="false"
     inkscape:zoom="1.1439312"
     inkscape:cx="374.39747"
     inkscape:cy="132.02592"
     inkscape:window-x="1272"
     inkscape:window-y="-8"
     inkscape:window-maximized="1"
     inkscape:current-layer="g14" /><g
     id="g10"
     inkscape:groupmode="layer"
     inkscape:label="ENCE_eSports_Circle"
     transform="matrix(1.3333333,0,0,-1.3333333,0,404.36)"><g
       id="g12"><g
         id="g14"
         clip-path="url(#clipPath18)"><g
           id="g20"
           transform="translate(0,151.6362)"><path
             d="m 0,0 c 0,-83.746 67.888,-151.636 151.637,-151.636 83.743,0 151.631,67.89 151.631,151.636 0,83.746 -67.888,151.634 -151.631,151.634 C 67.888,151.634 0,83.746 0,0"
             style="fill:#cb9b3f;fill-opacity:1;fill-rule:nonzero;stroke:none"
             id="path22"
             inkscape:connector-curvature="0" /></g><g
           id="g24"
           transform="translate(295.9092,154.4551)"><path
             d="m 0,0 c 0,-79.682 -64.595,-144.277 -144.273,-144.277 -79.683,0 -144.278,64.595 -144.278,144.277 0,79.681 64.595,144.276 144.278,144.276 C -64.595,144.276 0,79.681 0,0"
             style="fill:#7d1f27;fill-opacity:1;fill-rule:nonzero;stroke:none"
             id="path26"
             inkscape:connector-curvature="0" /></g><g
           id="g28"
           transform="translate(270.5088,143.9663)"><path
             d="M 0,0 -6.714,6.714 15.108,28.535 C 14.552,33.961 13.673,39.289 12.49,44.506 L -24.759,7.26 l -4.856,4.86 c -1.38,-48.045 -40.89,-86.703 -89.26,-86.703 -48.583,0 -88.227,38.999 -89.275,87.333 l -39.032,-39.03 c 10.001,-31.214 31.098,-57.508 58.624,-74.221 l -0.081,-0.002 c 4.253,-2.571 8.625,-4.889 13.091,-6.952 13.332,-6.208 27.846,-10.304 43.1,-11.835 l 0.081,0.078 c 8.967,-0.897 18.017,-0.918 27.005,-0.024 l 0.056,-0.054 c 10.639,1.066 20.9,3.404 30.666,6.81 1.061,0.365 2.118,0.733 3.165,1.125 0.416,0.156 0.83,0.326 1.245,0.486 1.388,0.538 2.774,1.098 4.15,1.682 0.213,0.092 0.422,0.186 0.635,0.279 8.468,3.651 16.659,8.202 24.412,13.702 l -0.104,-0.006 c 30.957,21.957 52.28,56.637 56.274,96.36 L 8.141,8.141 Z"
             style="fill:#211f1e;fill-opacity:1;fill-rule:nonzero;stroke:none"
             id="path30"
             inkscape:connector-curvature="0" /></g><g
           id="g32"
           transform="translate(62.374,161.2793)"><path
             d="m 0,0 c 1.38,48.043 40.89,86.703 89.26,86.703 48.579,0 88.224,-38.996 89.275,-87.332 L 217.566,38.4 c -9.998,31.215 -31.097,57.508 -58.627,74.224 l 0.082,0.001 c -4.253,2.574 -8.628,4.891 -13.101,6.956 -13.332,6.209 -27.839,10.301 -43.091,11.833 l -0.081,-0.081 c -8.967,0.9 -18.014,0.917 -27.002,0.025 l -0.057,0.056 c -10.528,-1.059 -20.692,-3.357 -30.371,-6.709 -1.169,-0.401 -2.335,-0.808 -3.496,-1.242 -0.363,-0.136 -0.722,-0.286 -1.086,-0.427 -1.447,-0.558 -2.889,-1.138 -4.321,-1.75 -0.169,-0.072 -0.338,-0.145 -0.507,-0.219 -8.497,-3.658 -16.713,-8.22 -24.493,-13.738 l 0.104,0.005 C -19.435,85.378 -40.758,50.697 -44.752,10.975 l 6.79,-6.791 9.138,9.135 6.711,-6.714 -9.135,-9.135 0.065,-0.068 -13.569,-13.567 c 0.554,-5.512 1.445,-10.925 2.647,-16.22 L -4.862,4.861 Z"
             style="fill:#211f1e;fill-opacity:1;fill-rule:nonzero;stroke:none"
             id="path34"
             inkscape:connector-curvature="0" /></g><g
           id="g36"
           transform="translate(229.4592,103.9418)"><path
             d="m 0,0 c 0,-43.064 -34.916,-77.974 -77.977,-77.974 -43.074,0 -77.983,34.91 -77.983,77.974 0,43.064 34.909,77.978 77.983,77.978 C -34.916,77.978 0,43.064 0,0"
             style="fill:#211f1e;fill-opacity:1;fill-rule:nonzero;stroke:none"
             id="path38"
             inkscape:connector-curvature="0" /></g><g
           id="g40"
           transform="translate(216.1542,112.751)"><path
             d="m 0,0 c 0,-35.719 -28.96,-64.676 -64.672,-64.676 -35.722,0 -64.675,28.957 -64.675,64.676 0,35.715 28.953,64.672 64.675,64.672 C -28.96,64.672 0,35.715 0,0"
             style="fill:#7f5429;fill-opacity:1;fill-rule:nonzero;stroke:none"
             id="path42"
             inkscape:connector-curvature="0" /></g><g
           id="g44"
           transform="translate(206.5738,120.4697)"><path
             d="m 0,0 c 0,30.435 -24.661,55.102 -55.091,55.102 -30.437,0 -55.102,-24.667 -55.102,-55.102 l 0.004,-0.081 -0.004,-0.09 c 0,-30.43 24.665,-55.101 55.102,-55.101 30.43,0 55.091,24.671 55.091,55.101 v 0.09 z"
             style="fill:#cb9b3f;fill-opacity:1;fill-rule:nonzero;stroke:none"
             id="path46"
             inkscape:connector-curvature="0" /></g><g
           id="g48"
           transform="translate(122.1729,95.6795)"><path
             d="m 0,0 c 0,0 -8.689,-6.726 -19.291,-7.189 l 7.548,-7.447 17.557,10.606 z"
             style="fill:#7f5429;fill-opacity:1;fill-rule:nonzero;stroke:none"
             id="path50"
             inkscape:connector-curvature="0" /></g><g
           id="g52"
           transform="translate(180.7852,95.6795)"><path
             d="M 0,0 C 0,0 8.689,-6.726 19.29,-7.189 L 11.743,-14.636 -5.809,-4.03 Z"
             style="fill:#7f5429;fill-opacity:1;fill-rule:nonzero;stroke:none"
             id="path54"
             inkscape:connector-curvature="0" /></g><g
           id="g56"
           transform="translate(178.8471,88.3898)"><path
             d="m 0,0 c 0,0 15.121,21.659 32.132,31.264 v 6.516 c 0,0 -26.743,-11.489 -39.189,-34.133 z"
             style="fill:#7f5429;fill-opacity:1;fill-rule:nonzero;stroke:none"
             id="path58"
             inkscape:connector-curvature="0" /></g><g
           id="g60"
           transform="translate(124.1111,88.3898)"><path
             d="m 0,0 c 0,0 -15.118,21.659 -32.128,31.264 v 6.516 c 0,0 26.743,-11.489 39.185,-34.133 z"
             style="fill:#7f5429;fill-opacity:1;fill-rule:nonzero;stroke:none"
             id="path62"
             inkscape:connector-curvature="0" /></g><g
           id="g64"
           transform="translate(100.4367,141.521)"><path
             d="m 0,0 c 0,0 25.137,-3.51 56.545,-27.02 l -7.96,-7.114 c 0,0 -14.392,23.603 -50.887,31.344 z"
             style="fill:#7f5429;fill-opacity:1;fill-rule:nonzero;stroke:none"
             id="path66"
             inkscape:connector-curvature="0" /></g><g
           id="g68"
           transform="translate(202.518,141.521)"><path
             d="m 0,0 c 0,0 -25.13,-3.51 -56.543,-27.02 l 7.961,-7.114 c 0,0 14.394,23.603 50.887,31.344 z"
             style="fill:#7f5429;fill-opacity:1;fill-rule:nonzero;stroke:none"
             id="path70"
             inkscape:connector-curvature="0" /></g><g
           id="g72"
           transform="translate(173.3177,155.4926)"><path
             d="m 0,0 c 1.463,4.105 5.394,6.291 10.005,6.291 3.19,0 7.143,-2.182 9.084,-4.422 l 1.54,4.159 c 0,0 -5.901,5.395 -14.956,4.525 C -3.381,9.678 0,0 0,0"
             style="fill:#7f5429;fill-opacity:1;fill-rule:nonzero;stroke:none"
             id="path74"
             inkscape:connector-curvature="0" /></g><g
           id="g76"
           transform="translate(129.6358,155.4926)"><path
             d="m 0,0 c -1.455,4.105 -5.389,6.291 -9.997,6.291 -3.198,0 -7.142,-2.182 -9.083,-4.422 l -1.544,4.159 c 0,0 5.901,5.395 14.959,4.525 C 3.389,9.678 0,0 0,0"
             style="fill:#7f5429;fill-opacity:1;fill-rule:nonzero;stroke:none"
             id="path78"
             inkscape:connector-curvature="0" /></g><g
           id="g80"
           transform="translate(209.3068,193.291)"><path
             d="m 0,0 c 3.897,8.133 3.205,15.114 3.205,15.114 -3.084,1.053 -7.545,1.849 -7.545,1.849 0.339,4.713 -0.799,28.25 -53.407,42.931 l -0.019,-1.037 -0.147,1.037 c -52.603,-14.681 -53.738,-38.218 -53.402,-42.931 0,0 -4.461,-0.796 -7.548,-1.849 0,0 -0.686,-6.981 3.208,-15.114 -12.207,-27.125 5.827,-37.74 5.827,-37.74 l 10.321,6.657 c 0,0 6.461,6.324 14.808,0.185 4.789,-3.515 5.68,-9.057 5.68,-9.057 0,0 8.788,-2.033 18.97,-2.302 v -0.048 c 0.733,-0.023 1.469,-0.029 2.21,-0.029 h 0.011 0.007 c 5.031,0 9.858,0.486 13.618,1.011 v 0.04 c 4.542,0.628 7.566,1.328 7.566,1.328 0,0 0.892,5.542 5.68,9.057 8.348,6.139 14.812,-0.185 14.812,-0.185 l 10.318,-6.657 c 0,0 18.03,10.615 5.827,37.74"
             style="fill:#211f1e;fill-opacity:1;fill-rule:nonzero;stroke:none"
             id="path82"
             inkscape:connector-curvature="0" /></g><g
           id="g84"
           transform="translate(100.9705,181.9236)"><path
             d="m 0,0 c 2.1,-2.218 3.949,-9.491 2.346,-13.185 0,0 -9.86,5.295 -6.412,19.836 0,0 1.982,-4.432 4.066,-6.651"
             style="fill:#7f5429;fill-opacity:1;fill-rule:nonzero;stroke:none"
             id="path86"
             inkscape:connector-curvature="0" /></g><g
           id="g88"
           transform="translate(206.0539,188.5744)"><path
             d="m 0,0 c 3.444,-14.541 -6.413,-19.836 -6.413,-19.836 -1.599,3.695 0.25,10.968 2.35,13.185 C -1.979,-4.431 0,0 0,0"
             style="fill:#7f5429;fill-opacity:1;fill-rule:nonzero;stroke:none"
             id="path90"
             inkscape:connector-curvature="0" /></g><g
           id="g92"
           transform="translate(204.9485,205.3214)"><path
             d="m 0,0 c 0,0 0.6,-9.857 -6.667,-16.996 -7.286,-7.139 -6.163,-18.447 -6.163,-18.447 0,0 -9.713,2.186 -20.933,-2.871 -11.205,-5.037 -17.132,11.338 -17.132,11.338 h -2.571 -2.575 c 0,0 -5.93,-16.375 -17.131,-11.338 -11.224,5.057 -20.933,2.871 -20.933,2.871 0,0 1.122,11.308 -6.163,18.447 -7.275,7.139 -6.671,16.996 -6.671,16.996 0,0 16.259,4.554 29.822,3.212 0,0 -5.058,2.952 -18.226,2.952 0,0.268 0.125,21.777 41.877,37.196 41.741,-15.419 41.874,-36.928 41.874,-37.196 -13.168,0 -18.23,-2.952 -18.23,-2.952 C -16.255,4.554 0,0 0,0"
             style="fill:#7f5429;fill-opacity:1;fill-rule:nonzero;stroke:none"
             id="path94"
             inkscape:connector-curvature="0" /></g><g
           id="g96"
           transform="translate(148.9071,192.8159)"><path
             d="m 0,0 c 0,0 -10.468,3.569 -15.393,6.896 -4.927,3.326 -17.165,5.702 -28.826,1.478 0,0 1.355,-5.052 5.787,-9.853 4.434,-4.807 6.821,-10.076 6.781,-13.985 0,0 2.95,5.362 2.582,10.29 0,0 7.886,-2.096 15.643,-2.219 0,0 5.787,-3.081 1.477,-8.868 l 2.464,-1.606 c 0,0 9.858,6.041 5.422,16.263 0,0 2.833,0.615 4.063,1.604"
             style="fill:#211f1e;fill-opacity:1;fill-rule:nonzero;stroke:none"
             id="path98"
             inkscape:connector-curvature="0" /></g><g
           id="g100"
           transform="translate(154.0533,192.8159)"><path
             d="m 0,0 c 0,0 10.468,3.569 15.394,6.896 4.924,3.326 17.162,5.702 28.827,1.478 0,0 -1.359,-5.052 -5.795,-9.853 -4.43,-4.807 -6.817,-10.076 -6.777,-13.985 0,0 -2.95,5.362 -2.579,10.29 0,0 -7.886,-2.096 -15.647,-2.219 0,0 -5.787,-3.081 -1.478,-8.868 l -2.463,-1.606 c 0,0 -9.854,6.041 -5.419,16.263 0,0 -2.837,0.615 -4.063,1.604"
             style="fill:#211f1e;fill-opacity:1;fill-rule:nonzero;stroke:none"
             id="path102"
             inkscape:connector-curvature="0" /></g><g
           id="g104"
           transform="translate(176.8582,222.9473)"><path
             d="m 0,0 c 0,0 -7.275,-11.088 -25.376,0 -18.107,-11.088 -25.382,0 -25.382,0 -2.825,-4.691 -3.327,-9.379 -3.327,-9.379 0,0 7.286,0.327 14.667,-5.035 8.867,-6.462 14.042,-6.462 14.042,-6.462 0,0 5.172,0 14.038,6.462 7.378,5.362 14.668,5.035 14.668,5.035 0,0 -0.505,4.688 -3.33,9.379"
             style="fill:#211f1e;fill-opacity:1;fill-rule:nonzero;stroke:none"
             id="path106"
             inkscape:connector-curvature="0" /></g><g
           id="g108"
           transform="translate(79.0535,118.3808)"><path
             d="m 0,0 c 6.807,19.42 39.186,-12.481 60.362,-39.968 17.596,-22.832 34.036,-41.049 59.286,-41.118 23.154,-0.057 37.933,19.716 33.494,40.645 -2.84,13.408 -13.588,26.378 -13.588,26.378 0,0 -1.503,-23.428 -15.633,-23.636 C 107.02,-37.951 83.575,-15.003 70.204,-3.648 56.836,7.699 22.032,34.432 0,22.326 -8.125,17.86 -10.008,11.791 -8.701,7.445 -6.715,0.812 0,0 0,0"
             style="fill:#211f1e;fill-opacity:1;fill-rule:nonzero;stroke:none"
             id="path110"
             inkscape:connector-curvature="0" /></g><g
           id="g112"
           transform="translate(221.4293,90.014)"><path
             d="m 0,0 c 0,0 3.002,-15.756 -9.582,-20.431 -17.655,-6.558 -42.529,16.105 -61.79,33.362 -26.735,23.96 -48.652,37.679 -62.947,34.738 -9.806,-2.019 -10.193,-8.075 -10.193,-8.075 0,0 8.318,12.609 35.811,-6.298 27.49,-18.921 49.182,-55.747 72.135,-67.597 C -13.614,-46.154 1.506,-36.569 4.033,-23.71 6.56,-10.85 0,0 0,0"
             style="fill:#7f5429;fill-opacity:1;fill-rule:nonzero;stroke:none"
             id="path114"
             inkscape:connector-curvature="0" /></g><g
           id="g116"
           transform="translate(223.9047,118.3808)"><path
             d="m 0,0 c -6.812,19.42 -39.186,-12.481 -60.366,-39.968 -17.592,-22.832 -34.032,-41.049 -59.282,-41.118 -23.155,-0.057 -37.933,19.716 -33.494,40.645 2.84,13.408 13.584,26.378 13.584,26.378 0,0 1.507,-23.428 15.633,-23.636 16.9,-0.252 40.352,22.696 53.724,34.051 C -56.837,7.699 -22.029,34.432 0,22.326 8.125,17.86 10.007,11.791 8.704,7.445 6.719,0.812 0,0 0,0"
             style="fill:#211f1e;fill-opacity:1;fill-rule:nonzero;stroke:none"
             id="path118"
             inkscape:connector-curvature="0" /></g><g
           id="g120"
           transform="translate(81.5289,90.014)"><path
             d="m 0,0 c 0,0 -3.002,-15.756 9.585,-20.431 17.655,-6.558 42.529,16.105 61.79,33.362 26.728,23.96 48.649,37.679 62.944,34.738 9.813,-2.019 10.193,-8.075 10.193,-8.075 0,0 -8.318,12.609 -35.804,-6.298 C 81.206,14.375 59.519,-22.451 36.57,-34.301 13.626,-46.154 -1.506,-36.569 -4.033,-23.71 -6.557,-10.85 0,0 0,0"
             style="fill:#7f5429;fill-opacity:1;fill-rule:nonzero;stroke:none"
             id="path122"
             inkscape:connector-curvature="0" /></g><g
           id="g124"
           transform="translate(178.2869,191.7772)"><path
             d="m 0,0 c 0,-0.278 -0.037,-0.556 -0.117,-0.818 -2.903,-1.009 -6.137,-1.622 -9.544,-1.759 -0.873,0.684 -1.39,1.599 -1.39,2.577 0,0.515 0.152,1.007 0.41,1.46 2.666,0.857 9.09,2.47 12.171,2.608 C 2.744,3.361 0,1.19 0,0"
             style="fill:#cb9b3f;fill-opacity:1;fill-rule:nonzero;stroke:none"
             id="path126"
             inkscape:connector-curvature="0" /></g><g
           id="g128"
           transform="translate(136.1589,192.177)"><path
             d="m 0,0 c 0,0.282 -0.037,0.561 -0.118,0.821 -2.898,1.008 -9.643,2.71 -13.05,2.848 -0.877,-0.682 2.111,-2.682 2.111,-3.669 0,-0.51 0.155,-1.004 0.416,-1.455 2.663,-0.858 5.585,-1.385 8.659,-1.521 C -0.763,-2.267 0,-1.187 0,0"
             style="fill:#cb9b3f;fill-opacity:1;fill-rule:nonzero;stroke:none"
             id="path130"
             inkscape:connector-curvature="0" /></g><g
           id="g132"
           transform="translate(18.4541,159.5044)"><path
             d="m 0,0 -11.943,-11.938 -5.733,5.733 11.938,11.94 z"
             style="fill:#c39746;fill-opacity:1;fill-rule:nonzero;stroke:none"
             id="path134"
             inkscape:connector-curvature="0" /></g><g
           id="g136"
           transform="translate(290.5518,151.8125)"><path
             d="M 0,0 11.94,11.94 6.205,17.676 -5.732,5.736 Z"
             style="fill:#c39746;fill-opacity:1;fill-rule:nonzero;stroke:none"
             id="path138"
             inkscape:connector-curvature="0" /></g></g></g><g
       id="g140"><g
         id="g142"
         clip-path="url(#clipPath146)"><g
           id="g148"
           transform="translate(69.4166,246.1602)"><path
             d="m 0,0 -3.896,3.204 -12.772,-15.523 c -5.773,-7.017 -4.429,-12.207 2.02,-17.511 6.442,-5.302 11.793,-5.625 17.569,1.391 l 12.775,15.524 -3.925,3.228 -12.775,-15.524 c -3.158,-3.837 -5.529,-3.805 -8.372,-1.945 L 7.452,-6.706 3.784,-3.69 -13.041,-24.14 c -2.373,2.432 -2.89,4.779 0.27,8.616 z"
             style="fill:#cb9b3f;fill-opacity:1;fill-rule:nonzero;stroke:none"
             id="path150"
             inkscape:connector-curvature="0" /></g><g
           id="g152"
           transform="translate(106.3658,268.7359)"><path
             d="m 0,0 0.031,0.01 c 2.455,0.73 2.752,0.394 11.393,-5.899 9.238,-6.736 11.625,-8.115 17.629,-6.329 l 3.592,1.066 -7.229,24.32 -5.085,-1.511 5.694,-19.164 -0.034,-0.009 C 23.361,-8.298 22.767,-7.857 14.592,-1.579 5.914,5.088 3.516,6.657 -3.027,4.711 l -3.593,-1.066 7.23,-24.318 5.085,1.51 z"
             style="fill:#cb9b3f;fill-opacity:1;fill-rule:nonzero;stroke:none"
             id="path154"
             inkscape:connector-curvature="0" /></g><g
           id="g156"
           transform="translate(203.3873,271.8589)"><path
             d="m 0,0 -19.158,5.971 c -8.709,2.713 -12.976,-0.502 -15.455,-8.468 -2.487,-7.969 -0.804,-13.04 7.909,-15.754 l 19.157,-5.969 1.545,4.955 -19.157,5.972 c -5.808,1.809 -5.733,4.544 -4.284,9.184 1.441,4.637 2.945,6.967 8.752,5.156 l 19.159,-5.968 z"
             style="fill:#cb9b3f;fill-opacity:1;fill-rule:nonzero;stroke:none"
             id="path158"
             inkscape:connector-curvature="0" /></g><g
           id="g160"
           transform="translate(252.4136,222.4317)"><path
             d="M 0,0 3.865,3.241 -9.05,18.645 c -5.842,6.961 -11.193,6.587 -17.582,1.227 -6.395,-5.361 -7.693,-10.565 -1.857,-17.528 l 12.916,-15.402 3.892,3.264 -12.915,15.403 c -3.193,3.809 -2.727,6.136 -0.376,8.589 l 17.013,-20.29 3.638,3.05 -17.013,20.291 c 2.82,1.884 5.223,1.961 8.419,-1.847 z"
             style="fill:#cb9b3f;fill-opacity:1;fill-rule:nonzero;stroke:none"
             id="path162"
             inkscape:connector-curvature="0" /></g></g></g></g></svg>