<svg version="1.1" id="Layer_1" xmlns="http://www.w3.org/2000/svg" xmlns:xlink="http://www.w3.org/1999/xlink" x="0px" y="0px"
	 width="100%" viewBox="0 0 400 400" enable-background="new 0 0 400 400" xml:space="preserve">
<path fill="#FF0000" opacity="1.000000" stroke="none" 
	d="
M217.000000,401.000000 
	C144.689117,401.000000 72.878220,401.000000 1.033666,401.000000 
	C1.033666,267.730774 1.033666,134.461548 1.033666,1.096156 
	C134.227509,1.096156 267.455109,1.096156 400.841370,1.096156 
	C400.841370,134.333191 400.841370,267.666565 400.841370,401.000000 
	C339.794952,401.000000 278.647461,401.000000 217.000000,401.000000 
M161.486694,332.005707 
	C165.884460,337.338959 170.156281,342.785400 174.772110,347.922729 
	C175.870956,349.145721 178.113434,349.891571 179.841049,349.911957 
	C193.335602,350.071411 206.836273,349.833862 220.327042,350.110352 
	C223.962982,350.184845 226.116257,348.798187 228.232269,346.228058 
	C240.881363,330.864410 253.538712,315.506287 266.338104,300.267975 
	C289.870453,272.251465 313.488586,244.306992 337.114563,216.369385 
	C339.758881,213.242508 341.128784,210.056412 341.113159,205.709869 
	C340.935303,156.223618 341.000183,106.736488 341.000183,57.249596 
	C341.000183,55.487576 341.000183,53.725555 341.000183,51.832878 
	C306.334076,51.832878 272.346954,51.797375 238.360626,51.944504 
	C236.769226,51.951393 234.688324,53.208775 233.684280,54.529247 
	C229.608139,59.889889 225.875015,65.510704 221.994370,71.020775 
	C214.931503,81.049179 207.853714,91.067055 200.635681,101.296883 
	C189.786819,85.915192 179.087097,70.968048 168.690460,55.812992 
	C166.652847,52.842766 164.589294,51.749725 161.070099,51.762680 
	C128.912399,51.881073 96.754066,51.832245 64.595917,51.832230 
	C63.146912,51.832230 61.697910,51.832226 60.239162,51.832226 
	C60.041527,52.761852 59.857353,53.224007 59.857201,53.686218 
	C59.840195,105.339180 59.827030,156.992157 59.887142,208.645050 
	C59.888725,210.005157 60.343029,211.654678 61.183952,212.678070 
	C68.053780,221.038467 75.044769,229.299850 82.039940,237.556595 
	C91.480888,248.700256 101.018669,259.762390 110.406906,270.950104 
	C127.309975,291.093048 144.132797,311.303314 161.486694,332.005707 
z"/>
<path fill="#FFFFFF" opacity="1.000000" stroke="none" 
	d="
M161.237915,331.745605 
	C144.132797,311.303314 127.309975,291.093048 110.406906,270.950104 
	C101.018669,259.762390 91.480888,248.700256 82.039940,237.556595 
	C75.044769,229.299850 68.053780,221.038467 61.183952,212.678070 
	C60.343029,211.654678 59.888725,210.005157 59.887142,208.645050 
	C59.827030,156.992157 59.840195,105.339180 59.857201,53.686218 
	C59.857353,53.224007 60.041527,52.761852 60.239162,51.832226 
	C61.697910,51.832226 63.146912,51.832230 64.595917,51.832230 
	C96.754066,51.832245 128.912399,51.881073 161.070099,51.762680 
	C164.589294,51.749725 166.652847,52.842766 168.690460,55.812992 
	C179.087097,70.968048 189.786819,85.915192 200.635681,101.296883 
	C207.853714,91.067055 214.931503,81.049179 221.994370,71.020775 
	C225.875015,65.510704 229.608139,59.889889 233.684280,54.529247 
	C234.688324,53.208775 236.769226,51.951393 238.360626,51.944504 
	C272.346954,51.797375 306.334076,51.832878 341.000183,51.832878 
	C341.000183,53.725555 341.000183,55.487576 341.000183,57.249596 
	C341.000183,106.736488 340.935303,156.223618 341.113159,205.709869 
	C341.128784,210.056412 339.758881,213.242508 337.114563,216.369385 
	C313.488586,244.306992 289.870453,272.251465 266.338104,300.267975 
	C253.538712,315.506287 240.881363,330.864410 228.232269,346.228058 
	C226.116257,348.798187 223.962982,350.184845 220.327042,350.110352 
	C206.836273,349.833862 193.335602,350.071411 179.841049,349.911957 
	C178.113434,349.891571 175.870956,349.145721 174.772110,347.922729 
	C170.156281,342.785400 165.884460,337.338959 161.237915,331.745605 
M138.661850,225.785995 
	C159.204620,250.227631 179.747391,274.669250 200.604843,299.485321 
	C205.488373,293.712463 210.185333,288.204346 214.834534,282.656189 
	C230.923950,263.455811 247.043198,244.279770 262.977722,224.951523 
	C264.111572,223.576187 264.560455,220.865387 264.113922,219.078964 
	C260.289886,203.779877 256.185638,188.550858 252.030502,172.790085 
	C265.115723,172.790085 277.710449,172.790085 290.329102,172.790085 
	C290.329102,149.409760 290.329102,126.448303 290.329102,103.000313 
	C281.878571,103.000313 273.576843,103.185364 265.291321,102.899986 
	C262.389313,102.800041 260.883820,104.014015 259.441101,106.090828 
	C248.127045,122.377556 236.753372,138.623016 225.485214,154.941360 
	C223.972778,157.131622 222.394806,158.123413 219.578369,158.081284 
	C207.084564,157.894363 194.585129,157.905594 182.090652,158.068665 
	C179.067047,158.108124 177.455948,157.061508 175.739380,154.561676 
	C164.586884,138.320435 153.209457,122.233231 141.835403,106.145294 
	C140.958817,104.905411 139.566727,103.181793 138.373657,103.148766 
	C129.296341,102.897423 120.208916,103.011124 111.365631,103.011124 
	C111.365631,126.766197 111.365631,149.829742 111.365631,173.296509 
	C124.110466,173.296509 136.492340,173.296509 149.268860,173.296509 
	C145.569183,187.015488 141.729599,200.188339 138.607285,213.529068 
	C137.753830,217.175568 133.890854,221.218689 138.661850,225.785995 
z"/>
<path fill="#FF0000" opacity="1.000000" stroke="none" 
	d="
M138.423981,225.503418 
	C133.890854,221.218689 137.753830,217.175568 138.607285,213.529068 
	C141.729599,200.188339 145.569183,187.015488 149.268860,173.296509 
	C136.492340,173.296509 124.110466,173.296509 111.365631,173.296509 
	C111.365631,149.829742 111.365631,126.766197 111.365631,103.011124 
	C120.208916,103.011124 129.296341,102.897423 138.373657,103.148766 
	C139.566727,103.181793 140.958817,104.905411 141.835403,106.145294 
	C153.209457,122.233231 164.586884,138.320435 175.739380,154.561676 
	C177.455948,157.061508 179.067047,158.108124 182.090652,158.068665 
	C194.585129,157.905594 207.084564,157.894363 219.578369,158.081284 
	C222.394806,158.123413 223.972778,157.131622 225.485214,154.941360 
	C236.753372,138.623016 248.127045,122.377556 259.441101,106.090828 
	C260.883820,104.014015 262.389313,102.800041 265.291321,102.899986 
	C273.576843,103.185364 281.878571,103.000313 290.329102,103.000313 
	C290.329102,126.448303 290.329102,149.409760 290.329102,172.790085 
	C277.710449,172.790085 265.115723,172.790085 252.030502,172.790085 
	C256.185638,188.550858 260.289886,203.779877 264.113922,219.078964 
	C264.560455,220.865387 264.111572,223.576187 262.977722,224.951523 
	C247.043198,244.279770 230.923950,263.455811 214.834534,282.656189 
	C210.185333,288.204346 205.488373,293.712463 200.604843,299.485321 
	C179.747391,274.669250 159.204620,250.227631 138.423981,225.503418 
z"/>
</svg>